custom-analysis
version=1
nRows=4
nColumns=98
inDegrees=no

This file contains tibia displacement and acting force.

Units are S.I. units (seconds, meters, Newtons, ...)
Angles are in degrees.

endheader
time	APT	SIT	knee_angle	aACL_R_force	pACL_R_force	aPCL_R_force	pPCL_R_force	aMCL_R_force	mMCL_R_force	pMCL_R_force	aLCL_R_force	mLCL_R_force	pLCL_R_force	aPCL_L_force	pPCL_L_force	aMCL_L_force	aLCL_L_force	aACL_R_length	pACL_R_length	aPCL_R_length	pPCL_R_length	aMCL_R_length	mMCL_R_length	pMCL_R_length	aLCL_R_length	mLCL_R_length	pLCL_R_length	aPCL_L_length	pPCL_L_length	aMCL_L_length	aLCL_L_length	aACL_R_strain	pACL_R_strain	aPCL_R_strain	pPCL_R_strain	aMCL_R_strain	mMCL_R_strain	pMCL_R_strain	aLCL_R_strain	mLCL_R_strain	pLCL_R_strain	aPCL_L_strain	pPCL_L_strain	aMCL_L_strain	aLCL_L_strain	femur_lat_meniscii_r.femur_lat_r.force.X	femur_lat_meniscii_r.femur_lat_r.force.Y	femur_lat_meniscii_r.femur_lat_r.force.Z	femur_lat_meniscii_r.femur_lat_r.torque.X	femur_lat_meniscii_r.femur_lat_r.torque.Y	femur_lat_meniscii_r.femur_lat_r.torque.Z	femur_lat_meniscii_r.meniscus_lat_r.force.X	femur_lat_meniscii_r.meniscus_lat_r.force.Y	femur_lat_meniscii_r.meniscus_lat_r.force.Z	femur_lat_meniscii_r.meniscus_lat_r.torque.X	femur_lat_meniscii_r.meniscus_lat_r.torque.Y	femur_lat_meniscii_r.meniscus_lat_r.torque.Z	femur_med_meniscii_r.femur_med_r.force.X	femur_med_meniscii_r.femur_med_r.force.Y	femur_med_meniscii_r.femur_med_r.force.Z	femur_med_meniscii_r.femur_med_r.torque.X	femur_med_meniscii_r.femur_med_r.torque.Y	femur_med_meniscii_r.femur_med_r.torque.Z	femur_med_meniscii_r.meniscus_med_r.force.X	femur_med_meniscii_r.meniscus_med_r.force.Y	femur_med_meniscii_r.meniscus_med_r.force.Z	femur_med_meniscii_r.meniscus_med_r.torque.X	femur_med_meniscii_r.meniscus_med_r.torque.Y	femur_med_meniscii_r.meniscus_med_r.torque.Z	femur_med_tibia_r.tibia_upper_r.force.X	femur_med_tibia_r.tibia_upper_r.force.Y	femur_med_tibia_r.tibia_upper_r.force.Z	femur_med_tibia_r.tibia_upper_r.torque.X	femur_med_tibia_r.tibia_upper_r.torque.Y	femur_med_tibia_r.tibia_upper_r.torque.Z	femur_med_tibia_r.femur_med_r.force.X	femur_med_tibia_r.femur_med_r.force.Y	femur_med_tibia_r.femur_med_r.force.Z	femur_med_tibia_r.femur_med_r.torque.X	femur_med_tibia_r.femur_med_r.torque.Y	femur_med_tibia_r.femur_med_r.torque.Z	femur_lat_tibia_r.tibia_upper_r.force.X	femur_lat_tibia_r.tibia_upper_r.force.Y	femur_lat_tibia_r.tibia_upper_r.force.Z	femur_lat_tibia_r.tibia_upper_r.torque.X	femur_lat_tibia_r.tibia_upper_r.torque.Y	femur_lat_tibia_r.tibia_upper_r.torque.Z	femur_lat_tibia_r.femur_lat_r.force.X	femur_lat_tibia_r.femur_lat_r.force.Y	femur_lat_tibia_r.femur_lat_r.force.Z	femur_lat_tibia_r.femur_lat_r.torque.X	femur_lat_tibia_r.femur_lat_r.torque.Y	femur_lat_tibia_r.femur_lat_r.torque.Z	femur_lat_meniscii_force_r	femur_med_meniscii_force_r	femur_lat_tibia_force_r	femur_med_tibia_force_r
      0.10575416	      0.00858849	      0.00729359	     27.26383017	     17.94765627	     -9.59387077	      0.00000000	      0.00000000	      0.00000000	      0.00000000	    -32.91217175	      0.00000000	      0.00000000	      0.00000000	      0.00000000	      0.00000000	      0.00000001	      0.00000000	      0.03297747	      0.02589034	      0.03040447	      0.02975227	      0.05719779	      0.05962763	      0.05908002	      0.05308976	      0.05015531	      0.04667718	      0.01525851	      0.01651186	      0.06550154	      0.04489616	      0.06360059	      0.03318771	     -0.02221645	     -0.00453454	     -0.04713222	     -0.00277399	      0.00599408	     -0.05158243	     -0.10943609	     -0.10823903	      0.00000079	     -0.32847694	      0.00000060	     -0.00000086	     19.88919534	    192.88237006	     30.54572644	    -17.21889785	      0.55020708	      7.57096318	    -19.88919534	   -192.88237006	    -30.54572644	      5.96638546	     -0.90594654	      2.00220205	    -20.16828177	     32.37714442	      1.13056201	      0.30964380	      0.48175362	     -8.27354330	     20.16828177	    -32.37714442	     -1.13056201	     -0.66977093	     -0.44824454	      0.88954014	    -54.24088655	   -482.27879901	    119.31773077	    -11.66015068	      1.78052606	      1.91353602	     54.24088655	    482.27879901	   -119.31773077	     58.37384712	     -0.68551657	     23.74813349	    -56.42689092	   -277.77557436	    -68.51091595	      9.43742239	     -2.14596012	      0.92824251	     56.42689092	    277.77557436	     68.51091595	    -35.02137652	      1.32168693	     23.48518015	    196.29628161	     38.16172482	    291.61105832	    499.77158245
      0.10657471	      0.00861382	      0.00739868	     27.62706547	     16.81918512	    -10.57744723	      0.00000000	      0.00000000	      0.00000000	      0.00000000	    -32.65411493	      0.00000000	      0.00000000	      0.00000000	      0.00000000	      0.00000000	      0.00000001	      0.00000000	      0.03295116	      0.02585381	      0.03048011	      0.02981042	      0.05723163	      0.05962838	      0.05904275	      0.05308612	      0.05012887	      0.04662816	      0.01525851	      0.01651186	      0.06550154	      0.04489616	      0.06275208	      0.03173010	     -0.01978387	     -0.00258913	     -0.04656855	     -0.00276151	      0.00535944	     -0.05164739	     -0.10990563	     -0.10917551	      0.00000079	     -0.32847694	      0.00000060	     -0.00000086	     18.28129464	    192.38018621	     30.48971389	    -17.17766568	      0.51050897	      6.87339172	    -18.28129464	   -192.38018621	    -30.48971389	      5.93881779	     -0.86426296	      2.09736963	    -20.68170031	     33.53629720	      1.47133923	      0.19722841	      0.49160733	     -8.48878901	     20.68170031	    -33.53629720	     -1.47133923	     -0.68629618	     -0.46130142	      0.92350378	    -57.08963182	   -486.11127249	    119.38316909	    -11.73011379	      1.83772712	      1.87887491	     57.08963182	    486.11127249	   -119.38316909	     58.45905990	     -0.73529085	     24.95610569	    -55.83646677	   -266.32277063	    -65.82493132	      9.03914794	     -2.11090666	      0.87490415	     55.83646677	    266.32277063	     65.82493132	    -33.63033531	      1.31121663	     23.22023199	    195.63732884	     39.42817263	    279.96151657	    503.80128659
      0.10738825	      0.00864015	      0.00750396	     27.98919996	     15.64242189	    -11.57279810	      0.00000000	      0.00000000	      0.00000000	      0.00000000	    -32.46172189	      0.00000000	      0.00000000	      0.00000000	      0.00000000	      0.00000000	      0.00000001	      0.00000000	      0.03292432	      0.02581697	      0.03055549	      0.02986802	      0.05726581	      0.05962943	      0.05900614	      0.05308270	      0.05010255	      0.04657935	      0.01525851	      0.01651186	      0.06550154	      0.04489616	      0.06188641	      0.03025966	     -0.01735998	     -0.00066190	     -0.04599916	     -0.00274401	      0.00473604	     -0.05170847	     -0.11037292	     -0.11010801	      0.00000079	     -0.32847694	      0.00000060	     -0.00000086	     16.67556555	    192.02646029	     30.41137805	    -17.13156955	      0.47185054	      6.17532638	    -16.67556555	   -192.02646029	    -30.41137805	      5.91530425	     -0.82353936	      2.19559077	    -21.09376482	     34.45240475	      1.89299552	      0.04388439	      0.49655667	     -8.66285857	     21.09376482	    -34.45240475	     -1.89299552	     -0.69342079	     -0.47060830	      0.95277617	    -59.50068567	   -488.98389847	    119.28533490	    -11.77975029	      1.88630204	      1.85814196	     59.50068567	    488.98389847	   -119.28533490	     58.45942874	     -0.77684179	     25.97412323	    -53.71638652	   -256.63983918	    -63.88372380	      8.71595923	     -2.04798927	      0.90105508	     53.71638652	    256.63983918	     63.88372380	    -32.59462307	      1.26882026	     22.30738141	    195.13351290	     40.44129745	    269.87142754	    506.82795471
      0.10788771	      0.00865704	      0.00756918	     28.21251243	     15.11747326	    -11.98511640	      0.00000000	     65.31272804	      0.00000000	      0.00000000	    -33.11557629	      0.00000000	      0.00000000	      0.00000000	      0.00000000	      0.00000000	      0.00000001	      0.00000000	      0.03290751	      0.02579408	      0.03060185	      0.02990325	      0.05728705	      0.05963016	      0.05898377	      0.05308062	      0.05008627	      0.04654920	      0.01525851	      0.01651186	      0.06550154	      0.04489616	      0.06134426	      0.02934632	     -0.01586911	      0.00051678	     -0.04564532	     -0.00273178	      0.00435514	     -0.05174563	     -0.11066202	     -0.11068397	      0.00000079	     -0.32847694	      0.00000060	     -0.00000086	     16.79142899	    193.67152228	     30.31926812	    -17.13290464	      0.46897820	      6.20304240	    -16.79142899	   -193.67152228	    -30.31926812	      5.95135010	     -0.82138230	      2.24059540	    -21.19463541	     35.11415482	      2.14211999	     -0.04563992	      0.49854812	     -8.70419288	     21.19463541	    -35.11415482	     -2.14211999	     -0.69849893	     -0.47555148	      0.96454288	    -61.64599200	   -490.05195725	    119.32669710	    -11.80355815	      1.92709812	      1.81461294	     61.64599200	    490.05195725	   -119.32669710	     58.49033589	     -0.81349332	     26.87785087	    -52.87326645	   -251.73589525	    -62.82348182	      8.54893183	     -2.02168936	      0.90839341	     52.87326645	    251.73589525	     62.82348182	    -32.03789812	      1.25279384	     21.94129488	    196.74823671	     41.07073309	    264.78922397	    508.12401023
